<?xml version="1.0" encoding="iso-8859-1"?>
<!-- Generator: Adobe Illustrator 19.0.0, SVG Export Plug-In . SVG Version: 6.00 Build 0)  -->
<svg version="1.1" id="Layer_1" xmlns="http://www.w3.org/2000/svg" xmlns:xlink="http://www.w3.org/1999/xlink" x="0px" y="0px"
	 viewBox="0 0 512 512" style="enable-background:new 0 0 512 512;" xml:space="preserve">
<path style="fill:#2D2D2D;" d="M384,0H128c-8.448,0-15.36,6.912-15.36,15.36v481.28c0,8.448,6.912,15.36,15.36,15.36h256
	c8.448,0,15.36-6.912,15.36-15.36V15.36C399.36,6.912,392.448,0,384,0z M304.552,15.52c2.832,0,5.128,2.296,5.128,5.128
	s-2.296,5.128-5.128,5.128s-5.128-2.296-5.128-5.128S301.72,15.52,304.552,15.52z M286.928,15.52c2.832,0,5.128,2.296,5.128,5.128
	s-2.296,5.128-5.128,5.128s-5.128-2.296-5.128-5.128S284.096,15.52,286.928,15.52z M207.44,15.52h45.44
	c2.816,0,5.12,2.304,5.12,5.12s-2.304,5.12-5.12,5.12h-45.44c-2.816,0-5.12-2.304-5.12-5.12S204.624,15.52,207.44,15.52z
	 M286.72,481.28h-61.44c-2.816,0-5.12-2.304-5.12-5.12s2.304-5.12,5.12-5.12h61.44c2.816,0,5.12,2.304,5.12,5.12
	S289.536,481.28,286.72,481.28z M384,450.808H128v-409.6h256V450.808z"/>
<g>
	<path style="fill:#C9C9C9;" d="M286.72,471.04h-61.44c-2.816,0-5.12,2.304-5.12,5.12s2.304,5.12,5.12,5.12h61.44
		c2.816,0,5.12-2.304,5.12-5.12S289.536,471.04,286.72,471.04z"/>
	<path style="fill:#C9C9C9;" d="M207.44,25.76h45.44c2.816,0,5.12-2.304,5.12-5.12s-2.304-5.12-5.12-5.12h-45.44
		c-2.816,0-5.12,2.304-5.12,5.12S204.624,25.76,207.44,25.76z"/>
	<circle style="fill:#C9C9C9;" cx="286.928" cy="20.648" r="5.128"/>
	<circle style="fill:#C9C9C9;" cx="304.56" cy="20.648" r="5.128"/>
</g>
<path style="fill:#8AD5DD;" d="M128,450.808h256v-409.6H128V450.808z M174.8,304.816V168.952v-26.68l23.536,12.568l127.248,67.936
	l26.44,14.112L325.584,251l-127.248,67.928l-23.536,12.56L174.8,304.816L174.8,304.816z"/>
<polygon style="fill:#DB2B42;" points="190.8,168.952 190.8,304.816 318.04,236.888 "/>
<path style="fill:#FFFFFF;" d="M325.576,251l26.44-14.112l-26.44-14.112L198.328,154.84l-23.536-12.568v26.68v135.864v26.68
	l23.536-12.56L325.576,251z M190.8,168.952l127.24,67.936L190.8,304.816V168.952z"/>
<g>
</g>
<g>
</g>
<g>
</g>
<g>
</g>
<g>
</g>
<g>
</g>
<g>
</g>
<g>
</g>
<g>
</g>
<g>
</g>
<g>
</g>
<g>
</g>
<g>
</g>
<g>
</g>
<g>
</g>
</svg>
