<?xml version="1.0" encoding="iso-8859-1"?>
<!-- Generator: Adobe Illustrator 19.0.0, SVG Export Plug-In . SVG Version: 6.00 Build 0)  -->
<svg version="1.1" id="Layer_1" xmlns="http://www.w3.org/2000/svg" xmlns:xlink="http://www.w3.org/1999/xlink" x="0px" y="0px"
	 viewBox="0 0 485 485" style="enable-background:new 0 0 485 485;" xml:space="preserve">
<g>
	<g>
		<path style="fill:#AFB6BB;" d="M152.5,447.5h20h140h20c5.5,0,10,4.5,10,10v10v10h-200v-10v-10C142.5,452,147,447.5,152.5,447.5z"
			/>
		<rect x="172.5" y="377.5" style="fill:#E7ECED;" width="140" height="70"/>
		<path style="fill:#31C0D8;" d="M477.5,17.5v270H7.5v-270c0-5.5,4.5-10,10-10h450C473,7.5,477.5,12,477.5,17.5z"/>
		<path style="fill:#AFB6BB;" d="M477.5,287.5v80c0,5.5-4.5,10-10,10h-155h-140h-155c-5.5,0-10-4.5-10-10v-80H477.5z"/>
	</g>
	<g id="XMLID_42_">
		<g>
			<path style="fill:#E7ECED;" d="M242.5,312.5c11,0,20,9,20,20s-9,20-20,20s-20-9-20-20S231.5,312.5,242.5,312.5z"/>
		</g>
		<g>
			<path style="fill:#231F20;" d="M467.5,0h-450C7.851,0,0,7.851,0,17.5v350c0,9.649,7.851,17.5,17.5,17.5H165v55h-12.5
				c-9.649,0-17.5,7.851-17.5,17.5V485h215v-27.5c0-9.649-7.851-17.5-17.5-17.5H320v-55h147.5c9.649,0,17.5-7.851,17.5-17.5v-350
				C485,7.851,477.149,0,467.5,0z M17.5,15h450c1.355,0,2.5,1.145,2.5,2.5V280H15V17.5C15,16.145,16.145,15,17.5,15z M335,457.5V470
				H150v-12.5c0-1.355,1.145-2.5,2.5-2.5h180C333.855,455,335,456.145,335,457.5z M180,440v-55h125v55H180z M467.5,370h-450
				c-1.355,0-2.5-1.145-2.5-2.5V295h455v72.5C470,368.855,468.855,370,467.5,370z"/>
			<path style="fill:#231F20;" d="M242.5,305c-15.163,0-27.5,12.336-27.5,27.5s12.337,27.5,27.5,27.5s27.5-12.336,27.5-27.5
				S257.663,305,242.5,305z M242.5,345c-6.893,0-12.5-5.607-12.5-12.5s5.607-12.5,12.5-12.5s12.5,5.607,12.5,12.5
				S249.393,345,242.5,345z"/>
		</g>
	</g>
</g>
<g>
</g>
<g>
</g>
<g>
</g>
<g>
</g>
<g>
</g>
<g>
</g>
<g>
</g>
<g>
</g>
<g>
</g>
<g>
</g>
<g>
</g>
<g>
</g>
<g>
</g>
<g>
</g>
<g>
</g>
</svg>
